<!DOCTYPE svg PUBLIC "-//W3C//DTD SVG 1.1//EN" "http://www.w3.org/Graphics/SVG/1.1/DTD/svg11.dtd">
<!-- Uploaded to: SVG Repo, www.svgrepo.com, Transformed by: SVG Repo Mixer Tools -->
<svg fill="#FFFFFF" width="64px" height="64px" viewBox="-3.2 -3.2 38.40 38.40" version="1.1" xmlns="http://www.w3.org/2000/svg" stroke="#FFFFFF">
<g id="SVGRepo_bgCarrier" stroke-width="0" transform="translate(2.24,2.24), scale(0.86)">
<rect x="-3.2" y="-3.2" width="38.40" height="38.40" rx="19.2" fill="#7ed0ec" strokewidth="0"/>
</g>
<g id="SVGRepo_tracerCarrier" stroke-linecap="round" stroke-linejoin="round" stroke="#CCCCCC" stroke-width="2.2399999999999998"> <title>ball</title> <path d="M16.098 1.686c-7.827 0-14.172 6.345-14.172 14.173s6.345 14.172 14.172 14.172 14.172-6.345 14.172-14.172-6.345-14.173-14.172-14.173zM24.345 24.964c2.169-3.191 2.57-7.678 0.91-11.874-0.621 1.292-1.942 2.185-3.471 2.185-2.125 0-3.848-1.723-3.848-3.848 0-1.213 0.562-2.294 1.439-3-0.576-0.277-0.989-0.838-1.056-1.502-0.316 0.373-0.788 0.611-1.316 0.611-0.953 0-1.725-0.772-1.725-1.725 0-0.569 0.275-1.073 0.699-1.387-0.994-0.272-2.004-0.41-3.004-0.405 1.036-0.285 2.128-0.439 3.255-0.439 6.757 0 12.234 5.478 12.234 12.234 0 3.641-1.591 6.91-4.115 9.151z"/> </g>
<g id="SVGRepo_iconCarrier"> <title>ball</title> <path d="M16.098 1.686c-7.827 0-14.172 6.345-14.172 14.173s6.345 14.172 14.172 14.172 14.172-6.345 14.172-14.172-6.345-14.173-14.172-14.173zM24.345 24.964c2.169-3.191 2.57-7.678 0.91-11.874-0.621 1.292-1.942 2.185-3.471 2.185-2.125 0-3.848-1.723-3.848-3.848 0-1.213 0.562-2.294 1.439-3-0.576-0.277-0.989-0.838-1.056-1.502-0.316 0.373-0.788 0.611-1.316 0.611-0.953 0-1.725-0.772-1.725-1.725 0-0.569 0.275-1.073 0.699-1.387-0.994-0.272-2.004-0.41-3.004-0.405 1.036-0.285 2.128-0.439 3.255-0.439 6.757 0 12.234 5.478 12.234 12.234 0 3.641-1.591 6.91-4.115 9.151z"/> </g>
</svg>